<svg xmlns="http://www.w3.org/2000/svg" viewBox="0 0 1200 630" font-family="Arial, 'Microsoft YaHei', sans-serif">
  <defs>
    <linearGradient id="bg2" x1="0" y1="0" x2="1" y2="1">
      <stop offset="0" stop-color="#0b0f1a"/>
      <stop offset="0.5" stop-color="#101a2e"/>
      <stop offset="1" stop-color="#241033"/>
    </linearGradient>
    <linearGradient id="bar" x1="0" y1="0" x2="1" y2="0">
      <stop offset="0" stop-color="#3ddc97"/>
      <stop offset="0.5" stop-color="#4f8cff"/>
      <stop offset="1" stop-color="#ff5c8a"/>
    </linearGradient>
  </defs>
  <rect width="1200" height="630" fill="url(#bg2)"/>
  <g opacity="0.12" fill="none" stroke="#4f8cff" stroke-width="1">
    <rect x="60" y="60" width="1080" height="510" rx="18"/>
    <line x1="60" y1="170" x2="1140" y2="170"/><line x1="60" y1="460" x2="1140" y2="460"/>
  </g>
  <text x="90" y="120" fill="#7f8ea8" font-size="16">1905 智商 · 1911 秒表 · 1920 问卷 · 1950 诊断 · 1989 信用分 · 2010 算法</text>
  <text x="90" y="215" fill="#eaf0fb" font-size="50" font-weight="bold">测量的场</text>
  <text x="90" y="268" fill="#a9b6d0" font-size="26">从智商到信用分，现代社会如何把人变成数字</text>
  <g font-size="17">
    <rect x="90" y="330" width="150" height="46" rx="8" fill="#122a22" stroke="#3ddc97" stroke-opacity="0.6"/>
    <text x="165" y="359" fill="#6fe3b4" text-anchor="middle">测量你</text>
    <text x="265" y="359" fill="#5b6a86" font-size="24">→</text>
    <rect x="300" y="330" width="150" height="46" rx="8" fill="#12203a" stroke="#4f8cff" stroke-opacity="0.6"/>
    <text x="375" y="359" fill="#7fb0ff" text-anchor="middle">定义你</text>
    <text x="475" y="359" fill="#5b6a86" font-size="24">→</text>
    <rect x="510" y="330" width="150" height="46" rx="8" fill="#2a1430" stroke="#ff5c8a" stroke-opacity="0.6"/>
    <text x="585" y="359" fill="#ff9bc0" text-anchor="middle">预测你</text>
    <text x="685" y="359" fill="#5b6a86" font-size="24">→</text>
    <rect x="720" y="330" width="240" height="46" rx="8" fill="#2b1428" stroke="#ff5c8a" stroke-opacity="0.8"/>
    <text x="840" y="359" fill="#ffb3ce" text-anchor="middle">系统说了算</text>
  </g>
  <rect x="90" y="405" width="960" height="10" rx="5" fill="url(#bar)"/>
  <text x="90" y="505" fill="#8b98b8" font-size="21">八个真实案例 · 每个都遵循同一模板：发明 → 接管 → 制度后果 → 内化成自我</text>
  <text x="90" y="545" fill="#5f6c8a" font-size="18">比奈 · 泰勒 · 凯特勒 · 韦尔奇 · FICO · 福柯 · 算法评分</text>
  <text x="1110" y="545" fill="#4f8cff" font-size="20" text-anchor="end" font-weight="bold">NFY · ningop.com</text>
</svg>
